HIERARCHY
ROOT Hips
{
	OFFSET 0.000000 0.000000 0.000000
	CHANNELS 6 Xposition Yposition Zposition Zrotation Yrotation Xrotation 
	JOINT LHipJoint
	{
		OFFSET 0.000000 0.000000 0.000000
		CHANNELS 3 Zrotation Yrotation Xrotation
		JOINT LeftUpLeg
		{
			OFFSET 1.363060 -1.794630 0.839290
			CHANNELS 3 Zrotation Yrotation Xrotation
			JOINT LeftLeg
			{
				OFFSET 2.448110 -6.726130 0.000000
				CHANNELS 3 Zrotation Yrotation Xrotation
				JOINT LeftFoot
				{
					OFFSET 2.562200 -7.039590 0.000000
					CHANNELS 3 Zrotation Yrotation Xrotation
					JOINT LeftToeBase
					{
						OFFSET 0.157640 -0.433110 2.322550
						CHANNELS 3 Zrotation Yrotation Xrotation
						End Site
						{
							OFFSET 0.000000 0.000000 0.000000
						}
					}
				}
			}
		}
	}
	JOINT RHipJoint
	{
		OFFSET 0.000000 0.000000 0.000000
		CHANNELS 3 Zrotation Yrotation Xrotation
		JOINT RightUpLeg
		{
			OFFSET -1.305520 -1.794630 0.839290
			CHANNELS 3 Zrotation Yrotation Xrotation
			JOINT RightLeg
			{
				OFFSET -2.542530 -6.985550 0.000000
				CHANNELS 3 Zrotation Yrotation Xrotation
				JOINT RightFoot
				{
					OFFSET -2.568260 -7.056230 0.000000
					CHANNELS 3 Zrotation Yrotation Xrotation
					JOINT RightToeBase
					{
						OFFSET -0.164730 -0.452590 2.363150
						CHANNELS 3 Zrotation Yrotation Xrotation
						End Site
						{
							OFFSET 0.000000 0.000000 0.000000
						}
					}
				}
			}
		}
	}
	JOINT LowerBack
	{
		OFFSET 0.000000 0.000000 0.000000
		CHANNELS 3 Zrotation Yrotation Xrotation
		JOINT Spine
		{
			OFFSET 0.028270 2.035590 -0.193380
			CHANNELS 3 Zrotation Yrotation Xrotation
			JOINT Spine1
			{
				OFFSET 0.056720 2.048850 -0.042750
				CHANNELS 3 Zrotation Yrotation Xrotation
				JOINT Neck
				{
					OFFSET 0.000000 0.000000 0.000000
					CHANNELS 3 Zrotation Yrotation Xrotation
					JOINT Neck1
					{
						OFFSET -0.054170 1.746240 0.172020
						CHANNELS 3 Zrotation Yrotation Xrotation
						JOINT Head
						{
							OFFSET 0.104070 1.761360 -0.123970
							CHANNELS 3 Zrotation Yrotation Xrotation
							End Site
							{
								OFFSET 0.000000 0.000000 0.000000
							}
						}
					}
				}
				JOINT LeftShoulder
				{
					OFFSET 0.000000 0.000000 0.000000
					CHANNELS 3 Zrotation Yrotation Xrotation
					JOINT LeftArm
					{
						OFFSET 3.362410 1.200890 -0.311210
						CHANNELS 3 Zrotation Yrotation Xrotation
						JOINT LeftForeArm
						{
							OFFSET 4.983000 -0.000000 -0.000000
							CHANNELS 3 Zrotation Yrotation Xrotation
							JOINT LeftHand
							{
								OFFSET 3.483560 -0.000000 -0.000000
								CHANNELS 3 Zrotation Yrotation Xrotation
								JOINT LeftFingerBase
								{
									OFFSET 0.000000 0.000000 0.000000
									CHANNELS 3 Zrotation Yrotation Xrotation
									JOINT LeftHandIndex1
									{
										OFFSET 0.715260 -0.000000 -0.000000
										CHANNELS 3 Zrotation Yrotation Xrotation
										End Site
										{
											OFFSET 0.000000 0.000000 0.000000
										}
									}
								}
								JOINT LThumb
								{
									OFFSET 0.000000 0.000000 0.000000
									CHANNELS 3 Zrotation Yrotation Xrotation
									End Site
									{
										OFFSET 0.000000 0.000000 0.000000
									}
								}
							}
						}
					}
				}
				JOINT RightShoulder
				{
					OFFSET 0.000000 0.000000 0.000000
					CHANNELS 3 Zrotation Yrotation Xrotation
					JOINT RightArm
					{
						OFFSET -3.136600 1.374050 -0.404650
						CHANNELS 3 Zrotation Yrotation Xrotation
						JOINT RightForeArm
						{
							OFFSET -5.241900 -0.000000 -0.000000
							CHANNELS 3 Zrotation Yrotation Xrotation
							JOINT RightHand
							{
								OFFSET -3.444170 -0.000000 -0.000000
								CHANNELS 3 Zrotation Yrotation Xrotation
								JOINT RightFingerBase
								{
									OFFSET 0.000000 0.000000 0.000000
									CHANNELS 3 Zrotation Yrotation Xrotation
									JOINT RightHandIndex1
									{
										OFFSET -0.622530 -0.000000 -0.000000
										CHANNELS 3 Zrotation Yrotation Xrotation
										End Site
										{
											OFFSET 0.000000 0.000000 0.000000
										}
									}
								}
								JOINT RThumb
								{
									OFFSET 0.000000 0.000000 0.000000
									CHANNELS 3 Zrotation Yrotation Xrotation
									End Site
									{
										OFFSET 0.000000 0.000000 0.000000
									}
								}
							}
						}
					}
				}
			}
		}
	}
}
MOTION
Frames: 6
Frame Time: 0.008333
18.357237 21.083664 -1.005000 -11.495126 43.104351 -8.911123 -4.584437 -2.411907 -1.040841 0.299224 -23.800253 -8.050443 3.395532 12.565871 36.005890 0.207726 -24.336086 1.449417 0.026400 1.048700 2.882800 4.175855 2.438692 -0.528051 23.956721 3.491703 -2.910992 -0.865611 -8.742722 22.196467 -1.653949 17.609971 -0.849363 -1.404800 -7.497100 21.196800 5.694989 2.756104 8.307432 1.882470 4.295286 -1.961112 2.750069 2.160749 1.013753 -9.734610 -5.217978 -9.623888 5.954246 -5.654243 26.068947 4.528900 -3.141800 17.088900 -0.185724 -0.993025 0.373463 -93.920677 7.590172 8.707492 9.521447 -18.475880 -1.758052 0.413699 0.468021 5.087601 28.806033 19.359193 9.927000 -7.125000 0.000000 0.000000 0.238700 51.204500 0.036500 1.718549 1.297396 -0.222860 78.835073 1.119263 20.493600 -17.008140 26.517308 -4.505443 0.266026 -0.062500 -11.903436 -17.290949 11.566648 -3.658400 7.125000 0.000000 0.000000 6.728500 -17.805400 4.379200 
18.399921 21.084979 -1.021892 -10.748215 42.068063 -8.071573 -4.644370 -2.369022 -1.018843 -0.012866 -24.648231 -7.340836 3.090335 12.178987 34.649838 0.156297 -24.708415 1.959923 0.009400 0.625000 1.717400 4.191087 2.434427 -0.545856 23.296105 3.965118 -3.234217 -0.935282 -8.913395 22.728283 -1.623574 18.324481 -0.252739 -1.761700 -8.351100 23.785600 5.329490 2.780665 8.086574 1.820981 4.283025 -1.970779 2.787157 2.147721 1.108321 -9.789610 -5.151287 -9.786643 5.852261 -5.537492 26.127238 4.485000 -3.118900 17.155500 -0.187586 -1.002549 0.369822 -94.052322 7.597164 8.143313 9.512495 -18.460146 -1.755724 0.415224 0.462266 5.461431 28.610330 19.141545 9.742200 -7.125000 0.000000 0.000000 0.080400 50.932700 0.011800 1.716156 1.287201 -0.226444 78.692592 1.306700 20.443849 -16.882517 26.366706 -4.450118 0.255186 -0.074544 -11.544640 -16.986051 11.895081 -3.690200 7.125000 0.000000 0.000000 6.952000 -17.480100 4.576700 
18.444628 21.078202 -1.040200 -9.896510 40.927402 -7.092913 -4.691237 -2.335536 -0.999086 -0.386348 -25.166011 -6.820551 2.795347 11.796019 33.346843 0.098205 -24.781376 2.944711 0.007600 0.563600 1.548800 4.210152 2.437164 -0.565571 22.477553 4.424859 -3.701499 -1.009848 -9.081536 23.267846 -1.579846 19.277468 0.424296 -2.089600 -9.050300 25.952900 4.850408 2.898860 7.749270 1.720261 4.380417 -1.975792 2.796513 2.188924 1.261730 -9.886922 -5.150742 -9.904019 5.917610 -5.540002 26.099148 4.541200 -3.135900 17.176200 -0.207445 -0.996412 0.370190 -93.949412 7.712202 8.543368 9.640271 -18.650808 -1.788996 0.407196 0.457004 5.041468 28.305676 18.640847 9.381000 -7.125000 0.000000 0.000000 -0.134100 50.336600 -0.017600 1.699468 1.282327 -0.222147 78.557158 1.514881 20.452805 -16.794797 26.265056 -4.412625 0.253635 -0.089008 -11.539875 -16.987048 12.377869 -3.839200 7.125000 0.000000 0.000000 6.958100 -16.966700 4.659500 
18.488122 21.064548 -1.061036 -9.650599 39.617936 -6.521213 -4.691394 -2.318196 -0.953541 -0.225930 -25.124920 -6.585907 2.530444 11.424618 32.131248 0.036135 -24.760984 4.441999 0.045500 1.376400 3.785100 4.222023 2.433406 -0.597711 22.195393 5.076793 -4.133965 -1.090519 -9.250177 23.796772 -1.561268 20.137765 0.413968 -1.918200 -8.693600 24.841500 4.817255 3.029068 7.440935 1.693796 4.526197 -1.989836 2.785411 2.261203 1.391020 -9.978835 -5.079832 -10.013765 6.050017 -5.443999 26.033003 4.647000 -3.109000 17.154300 -0.214725 -0.988329 0.368038 -93.904646 7.681656 8.828390 9.678049 -18.709933 -1.798399 0.402766 0.459002 4.732165 28.185347 18.649656 9.339500 -7.125000 0.000000 0.000000 -0.254400 50.326200 -0.033400 1.696261 1.280163 -0.219875 78.353991 1.648097 20.561619 -16.760548 26.227158 -4.397555 0.261285 -0.090792 -11.621505 -17.232211 12.394329 -3.904900 7.125000 0.000000 0.000000 6.783400 -16.926100 4.546900 
18.528783 21.059086 -1.078332 -9.490944 38.341692 -6.119921 -4.693426 -2.300605 -0.893958 -0.054112 -24.796715 -6.394732 2.318720 11.109201 31.078528 0.048588 -24.792981 4.747414 0.036700 1.236300 3.399300 4.230243 2.424953 -0.627719 22.054092 5.733576 -4.388318 -1.163746 -9.400987 24.260673 -1.557321 20.750820 0.165268 -1.698700 -8.208000 23.347500 4.803957 3.128292 7.298176 1.702405 4.646816 -2.023308 2.845262 2.319301 1.377479 -10.066272 -4.964042 -10.055063 6.054349 -5.260444 26.001772 4.678300 -3.057200 17.119000 -0.208200 -0.995357 0.362597 -93.949387 7.681508 8.719795 9.655718 -18.683050 -1.794043 0.402841 0.467242 4.886809 28.194970 19.204087 9.610000 -7.125000 0.000000 0.000000 -0.343300 50.928400 -0.050100 1.705246 1.277004 -0.225266 78.106086 1.636597 20.752859 -16.753851 26.220485 -4.394394 0.268516 -0.091011 -11.513941 -17.510905 12.317414 -3.949200 7.125000 0.000000 0.000000 6.584200 -16.981800 4.403500 
18.569545 21.059490 -1.091077 -9.265936 37.125146 -5.717956 -4.691548 -2.284880 -0.833731 0.034105 -24.286993 -6.238025 2.164460 10.870072 30.265296 0.082982 -24.882308 4.471959 0.016100 0.819500 2.252200 4.241191 2.419261 -0.651306 21.853294 6.195700 -4.604344 -1.225984 -9.517870 24.606983 -1.571788 21.436905 -0.418685 -1.431700 -7.565700 21.402500 4.687955 3.234095 7.146748 1.686335 4.769464 -2.056310 2.868758 2.378674 1.349647 -9.961614 -4.937652 -9.979787 5.914944 -5.258255 25.957301 4.557900 -3.055100 17.038300 -0.202968 -1.002055 0.360815 -93.847177 7.813130 8.679104 9.677472 -18.719899 -1.800397 0.397831 0.468638 5.113249 27.880580 19.403939 9.582500 -7.125000 0.000000 0.000000 -0.692200 51.090100 -0.103900 1.714510 1.269404 -0.230215 77.973054 1.613450 20.840344 -16.707725 26.163423 -4.372718 0.273410 -0.093309 -11.339567 -17.706625 12.305180 -3.993500 7.125000 0.000000 0.000000 6.444900 -16.975800 4.309900 
